PathFileType	4	(X/Y/Z)	c:/Users/goper/Files/vsCode/490R/osim_files/C03/C03_Static.trc
DataRate	CameraRate	NumFrames	NumMarkers	Units                	OrigDataRate	OrigDataStartFrame	OrigNumFrames
250.00	250.00	8	36	mm	250.0	193	1538
                Frame#	Time	LPSIS			LASIS			LTH1			LTH2			LTH3			LTH4			LLFE			LMFE			LSH1			LSH2			LSH3			LSH4			LLMAL			LMMAL			LCAL			LMTP5			LTOE			LMTP1			RPSIS			RASIS			RTH1			RTH2			RTH3			RTH4			RLFE			RMFE			RSH1			RSH2			RSH3			RSH4			RLMAL			RMMAL			RCAL			RMTP1			RTOE			RMTP5		
		X1	Y1	Z1	X2	Y2	Z2	X3	Y3	Z3	X4	Y4	Z4	X5	Y5	Z5	X6	Y6	Z6	X7	Y7	Z7	X8	Y8	Z8	X9	Y9	Z9	X10	Y10	Z10	X11	Y11	Z11	X12	Y12	Z12	X13	Y13	Z13	X14	Y14	Z14	X15	Y15	Z15	X16	Y16	Z16	X17	Y17	Z17	X18	Y18	Z18	X19	Y19	Z19	X20	Y20	Z20	X21	Y21	Z21	X22	Y22	Z22	X23	Y23	Z23	X24	Y24	Z24	X25	Y25	Z25	X26	Y26	Z26	X27	Y27	Z27	X28	Y28	Z28	X29	Y29	Z29	X30	Y30	Z30	X31	Y31	Z31	X32	Y32	Z32	X33	Y33	Z33	X34	Y34	Z34	X35	Y35	Z35	X36	Y36	Z36

193	0.76800	-381.45996	1036.19690	375.00589	-197.74782	972.33984	338.04919	-346.50928	645.14240	284.52780	-347.39011	582.90643	288.08344	-270.82410	639.33173	285.14392	-280.03986	578.72321	288.73477	-329.11093	490.04071	293.56241	-333.44604	479.36517	405.97211	-401.74612	312.69971	280.74829	-397.09384	266.38580	282.69312	-341.20737	316.03192	273.56610	-345.11197	268.19385	275.69073	-352.73843	99.91321	295.37442	-333.24988	109.47491	374.06161	-419.47919	64.20737	330.55057	-219.10831	50.40670	269.28372	-187.48843	66.51167	322.86737	-209.29701	54.61349	363.23755	-383.03143	1029.57153	484.53964	-207.62732	989.29510	548.18597	-355.85980	619.43420	578.20795	-359.57568	557.78833	568.66589	-295.11295	616.94830	601.01721	-288.54355	555.57697	597.76227	-298.85748	485.82703	584.70416	-303.29684	493.88278	471.06000	-406.37091	311.37805	598.38043	-406.68069	265.13831	598.51984	-347.33359	303.01743	616.13635	-356.33908	260.81775	616.30554	-374.69925	102.39845	602.23822	-353.62650	101.25701	523.21777	-441.61554	64.34105	556.93250	-233.66840	41.41935	542.31097	-210.62280	66.76998	589.28253	-270.80289	38.49752	646.47876
194	0.77200	-381.40601	1036.17920	374.98218	-197.68556	972.32898	338.05026	-346.43021	645.10583	284.52423	-347.35776	582.88623	288.09705	-270.52081	639.30359	285.15091	-280.00021	578.71423	288.75961	-329.08002	490.02704	293.55359	-333.43677	479.37067	405.95505	-401.75455	312.68491	280.75250	-397.07080	266.38580	282.66599	-341.20950	316.01181	273.55582	-345.11450	268.17526	275.66647	-352.74896	99.90836	295.38095	-333.24850	109.46898	374.05576	-419.45364	64.17892	330.55948	-219.11676	50.37822	269.28061	-187.50287	66.50080	322.85931	-209.28265	54.60519	363.21976	-383.03976	1029.57056	484.51059	-207.63153	989.28357	548.19751	-355.64935	619.27814	577.82593	-359.54929	557.76685	568.73041	-295.08881	616.92554	601.02411	-288.69962	555.49573	597.71228	-298.84811	485.83008	584.70465	-303.28442	493.87878	471.04929	-406.38269	311.36884	598.37500	-406.67059	265.11957	598.50018	-347.32562	303.00476	616.13196	-356.32114	260.79721	616.30029	-374.73105	102.38094	602.22815	-353.60834	101.25123	523.22003	-441.61859	64.26904	556.99280	-233.70454	41.39506	542.31244	-210.61403	66.76447	589.27509	-270.79922	38.48421	646.46844
195	0.77600	-381.37411	1036.18384	374.95697	-197.65117	972.31219	338.07681	-346.41074	645.10309	284.52310	-347.32281	582.89038	288.07773	-270.49344	639.26892	285.20438	-280.00543	578.68225	288.78183	-329.07266	490.01785	293.57117	-333.43500	479.37241	405.96558	-401.72363	312.69296	280.72632	-397.00687	266.40500	282.63846	-341.18262	316.01205	273.56824	-345.07782	268.16431	275.68671	-352.74387	99.92473	295.37271	-333.24881	109.45461	374.07785	-419.48032	64.19121	330.56412	-219.12738	50.36755	269.29144	-187.49950	66.47922	322.88257	-209.28644	54.59076	363.25006	-383.04538	1029.57605	484.49661	-207.63626	989.26862	548.22528	-355.80637	619.38934	578.20337	-359.53876	557.79449	568.71356	-295.10489	616.92554	601.05231	-288.66138	555.48743	597.72833	-298.83939	485.81924	584.71844	-303.29080	493.86349	471.05411	-406.34445	311.34100	598.39288	-406.66122	265.09988	598.50995	-347.32733	302.99957	616.14966	-356.30948	260.78522	616.31146	-374.70966	102.36195	602.24823	-353.62234	101.23872	523.22736	-441.62033	64.34131	556.94464	-233.72540	41.36318	542.32458	-210.61079	66.75875	589.28204	-270.79367	38.46998	646.48669
196	0.78000	-381.33902	1036.16992	374.92972	-197.62151	972.29980	338.09854	-346.34561	645.10266	284.51556	-347.33954	582.88623	288.11725	-270.43948	639.27051	285.20596	-279.95334	578.67358	288.80560	-329.05966	490.00214	293.57867	-333.44412	479.36234	405.97668	-401.69318	312.70184	280.73026	-397.03079	266.39609	282.65463	-341.18353	315.99527	273.56198	-345.06717	268.16638	275.68649	-352.75549	99.92383	295.37933	-333.23297	109.45206	374.08786	-419.43347	64.16983	330.56302	-219.11182	50.36057	269.29379	-187.50192	66.46922	322.88690	-209.29378	54.56108	363.26645	-383.00171	1029.55725	484.47910	-207.61732	989.24731	548.24658	-355.77686	619.36786	578.22577	-359.50714	557.74213	568.70148	-295.05673	616.94360	601.04828	-288.63745	555.47156	597.74567	-298.81906	485.81534	584.72699	-303.27869	493.85837	471.05969	-406.28238	311.32065	598.40186	-406.65060	265.07413	598.53125	-347.31470	302.99728	616.15131	-356.29892	260.78778	616.32709	-374.66595	102.35286	602.26489	-353.61630	101.23491	523.22931	-441.61356	64.24765	557.02118	-233.71974	41.35708	542.34064	-210.60278	66.75189	589.30121	-270.77194	38.47366	646.48285
197	0.78400	-381.30969	1036.19006	374.91055	-197.57213	972.31274	338.13705	-346.31332	645.11853	284.52338	-347.30609	582.88654	288.13898	-270.40790	639.30908	285.22321	-279.95544	578.69006	288.82538	-329.04779	490.02106	293.57535	-333.45404	479.37665	405.98639	-401.70291	312.70590	280.73022	-397.02325	266.41730	282.66431	-341.13812	316.03369	273.57617	-345.03162	268.17834	275.69092	-352.76547	99.93115	295.38101	-333.25473	109.44778	374.09763	-419.45636	64.17908	330.57852	-219.12778	50.35839	269.31891	-187.50484	66.48841	322.89572	-209.29414	54.56075	363.27625	-383.00024	1029.53296	484.46643	-207.64513	989.24335	548.27429	-355.74268	619.36200	578.25134	-359.54007	557.71960	568.74384	-295.07712	616.92957	601.05481	-288.68860	555.46021	597.73602	-298.82910	485.83005	584.74921	-303.26947	493.88010	471.07745	-406.29248	311.31982	598.39783	-406.63483	265.07596	598.52765	-347.36780	302.99533	616.17419	-356.32169	260.78638	616.32880	-374.67810	102.34885	602.26099	-353.60678	101.23618	523.23792	-441.62973	64.24928	557.03070	-233.67084	41.40193	542.33209	-210.61180	66.75288	589.31226	-270.79895	38.45752	646.51239
198	0.78800	-381.27740	1036.17273	374.87625	-197.52092	972.32391	338.15887	-346.32236	645.11322	284.54355	-347.28369	582.88202	288.15128	-270.34738	639.33807	285.24728	-279.89633	578.69525	288.82614	-329.00446	490.04059	293.56729	-333.44919	479.37051	405.97916	-401.69376	312.70630	280.74139	-397.00021	266.39975	282.66669	-341.13312	316.05911	273.55588	-345.02808	268.21234	275.68982	-352.75201	99.92707	295.37375	-333.25848	109.44582	374.09665	-419.46216	64.16268	330.55832	-219.12639	50.35124	269.34692	-187.50702	66.48286	322.90964	-209.31642	54.54725	363.29224	-382.99948	1029.53357	484.44235	-207.65735	989.24817	548.30670	-355.61499	619.23474	577.83801	-359.69855	557.32935	567.83655	-295.12555	616.92041	601.05145	-288.71289	555.46777	597.74182	-298.83426	485.83447	584.76611	-303.24619	493.88547	471.07993	-406.30582	311.31592	598.39575	-406.63162	265.08966	598.53278	-347.36618	302.99954	616.18591	-356.33844	260.77594	616.34796	-374.71341	102.35376	602.27319	-353.60318	101.25943	523.23718	-441.64044	64.26860	557.06073	-233.68637	41.39661	542.32507	-210.61920	66.76064	589.31036	-270.80948	38.46623	646.53497
199	0.79200	-381.25311	1036.16467	374.83212	-197.48152	972.31573	338.18234	-346.27872	645.11224	284.53552	-347.24362	582.88336	288.12784	-270.35330	639.33716	285.23868	-279.88092	578.71973	288.81985	-329.00391	490.06076	293.56366	-333.49133	479.39169	405.98181	-401.66101	312.69333	280.70941	-396.97467	266.41049	282.63318	-341.11880	316.07791	273.57959	-345.01205	268.21954	275.70651	-352.76743	99.94603	295.37796	-333.29111	109.46154	374.11234	-419.45688	64.19711	330.55887	-219.13574	50.37468	269.33838	-187.50949	66.50549	322.91714	-209.31985	54.57328	363.29333	-382.99423	1029.53491	484.41653	-207.68643	989.25836	548.32556	-355.61432	619.25092	577.83185	-359.68393	557.36230	567.81525	-295.12482	616.93146	601.05286	-288.73773	555.50317	597.74280	-298.85132	485.85266	584.76868	-303.20013	493.93851	471.07529	-406.33389	311.33917	598.39124	-406.64178	265.11758	598.52985	-347.39249	303.00818	616.19293	-356.34283	260.80533	616.34900	-374.73715	102.38564	602.25336	-353.62415	101.25851	523.23914	-441.63559	64.28654	557.05750	-233.66565	41.43482	542.33661	-210.60678	66.78228	589.31274	-270.83432	38.47951	646.53650
200	0.79600	-381.23782	1036.17346	374.79025	-197.44360	972.33966	338.20459	-346.24817	645.10114	284.53345	-347.21558	582.86798	288.13025	-270.29898	639.35492	285.26077	-279.84796	578.73480	288.81821	-328.98749	490.07571	293.55350	-333.52939	479.39178	405.97458	-401.64096	312.69583	280.70578	-397.00363	266.41055	282.66864	-341.10583	316.10492	273.56302	-344.99777	268.24713	275.67178	-352.77420	99.94205	295.37329	-333.28473	109.46944	374.09903	-419.45773	64.18240	330.55539	-219.13721	50.39385	269.32666	-187.51201	66.54140	322.91824	-209.32832	54.58712	363.28439	-382.98373	1029.54858	484.36987	-207.67604	989.27789	548.32709	-355.60864	619.26721	577.82239	-359.55072	557.74915	568.70044	-295.13608	616.95020	601.03522	-288.73593	555.50012	597.72473	-298.84171	485.87613	584.76843	-303.17245	493.93741	471.07758	-406.31119	311.35040	598.37109	-406.67136	265.11911	598.51782	-347.38828	303.02545	616.18262	-356.34680	260.82526	616.33069	-374.73776	102.39801	602.25500	-353.62451	101.28010	523.22852	-441.62323	64.29018	557.05981	-233.66887	41.44866	542.32196	-210.60881	66.77987	589.30695	-270.84360	38.48638	646.53070
